<mxfile host="app.diagrams.net" modified="2023-09-10T21:21:57.408Z" agent="Mozilla/5.0 (Windows NT 10.0; Win64; x64; rv:109.0) Gecko/20100101 Firefox/117.0" etag="wfWe0hUjxLN5E3gD_Gh3" version="21.7.4" type="device">
  <diagram name="Страница — 1" id="tHWk73P_PaQuCRavGto3">
    <mxGraphModel dx="1000" dy="1708" grid="1" gridSize="10" guides="1" tooltips="1" connect="1" arrows="1" fold="1" page="1" pageScale="1" pageWidth="827" pageHeight="1169" math="0" shadow="0">
      <root>
        <mxCell id="0" />
        <mxCell id="1" parent="0" />
        <mxCell id="9HgOVvUjEggW6HavxXkO-15" style="edgeStyle=orthogonalEdgeStyle;rounded=0;orthogonalLoop=1;jettySize=auto;html=1;entryX=0.5;entryY=0;entryDx=0;entryDy=0;" parent="1" target="9HgOVvUjEggW6HavxXkO-14" edge="1">
          <mxGeometry relative="1" as="geometry">
            <mxPoint x="430" y="-1070" as="sourcePoint" />
          </mxGeometry>
        </mxCell>
        <mxCell id="9HgOVvUjEggW6HavxXkO-4" value="&lt;h1&gt;Алгоритм Z-буфера&lt;br&gt;&lt;/h1&gt;&lt;p&gt;&lt;b&gt;входные данные:&lt;/b&gt;&lt;br&gt;&lt;/p&gt;&lt;p&gt;буфер кадра = БК, буфер глубины = БГ,&amp;nbsp; массив с многоугольниками сцены, атрибуты многоугольников.&lt;br&gt;&lt;/p&gt;&lt;p&gt;&lt;b&gt;Выходные данные: &lt;/b&gt;финальное изображение&lt;br&gt;&lt;/p&gt;&lt;p&gt;&lt;br&gt;&lt;/p&gt;&lt;p&gt;&amp;nbsp;&lt;br&gt;&lt;/p&gt;" style="text;html=1;strokeColor=none;fillColor=none;spacing=5;spacingTop=-20;whiteSpace=wrap;overflow=hidden;rounded=0;" parent="1" vertex="1">
          <mxGeometry x="10" y="-1150" width="260" height="170" as="geometry" />
        </mxCell>
        <mxCell id="9HgOVvUjEggW6HavxXkO-5" style="edgeStyle=orthogonalEdgeStyle;rounded=0;orthogonalLoop=1;jettySize=auto;html=1;exitX=0.5;exitY=1;exitDx=0;exitDy=0;" parent="1" source="9HgOVvUjEggW6HavxXkO-4" target="9HgOVvUjEggW6HavxXkO-4" edge="1">
          <mxGeometry relative="1" as="geometry" />
        </mxCell>
        <mxCell id="9HgOVvUjEggW6HavxXkO-7" value="" style="endArrow=none;html=1;rounded=0;exitX=1;exitY=1;exitDx=0;exitDy=0;" parent="1" source="9HgOVvUjEggW6HavxXkO-4" edge="1">
          <mxGeometry width="50" height="50" relative="1" as="geometry">
            <mxPoint x="280" y="-1060" as="sourcePoint" />
            <mxPoint x="270" y="-1150" as="targetPoint" />
          </mxGeometry>
        </mxCell>
        <mxCell id="9HgOVvUjEggW6HavxXkO-8" value="" style="endArrow=none;html=1;rounded=0;" parent="1" edge="1">
          <mxGeometry width="50" height="50" relative="1" as="geometry">
            <mxPoint x="200" y="-1150" as="sourcePoint" />
            <mxPoint x="270" y="-1150" as="targetPoint" />
          </mxGeometry>
        </mxCell>
        <mxCell id="9HgOVvUjEggW6HavxXkO-10" value="" style="endArrow=none;html=1;rounded=0;exitX=1;exitY=1;exitDx=0;exitDy=0;entryX=0.75;entryY=1;entryDx=0;entryDy=0;" parent="1" source="9HgOVvUjEggW6HavxXkO-4" target="9HgOVvUjEggW6HavxXkO-4" edge="1">
          <mxGeometry width="50" height="50" relative="1" as="geometry">
            <mxPoint x="280" y="-1060" as="sourcePoint" />
            <mxPoint x="330" y="-1110" as="targetPoint" />
          </mxGeometry>
        </mxCell>
        <mxCell id="9HgOVvUjEggW6HavxXkO-12" value="" style="endArrow=none;dashed=1;html=1;rounded=0;entryX=0;entryY=0.5;entryDx=0;entryDy=0;" parent="1" edge="1">
          <mxGeometry width="50" height="50" relative="1" as="geometry">
            <mxPoint x="270" y="-1110" as="sourcePoint" />
            <mxPoint x="330" y="-1110" as="targetPoint" />
          </mxGeometry>
        </mxCell>
        <mxCell id="9HgOVvUjEggW6HavxXkO-17" style="edgeStyle=orthogonalEdgeStyle;rounded=0;orthogonalLoop=1;jettySize=auto;html=1;exitX=0.5;exitY=1;exitDx=0;exitDy=0;entryX=0.5;entryY=0;entryDx=0;entryDy=0;" parent="1" source="9HgOVvUjEggW6HavxXkO-14" target="9HgOVvUjEggW6HavxXkO-16" edge="1">
          <mxGeometry relative="1" as="geometry" />
        </mxCell>
        <mxCell id="9HgOVvUjEggW6HavxXkO-14" value="&lt;div&gt;БК = фоновое значение &lt;br&gt;&lt;/div&gt;&lt;div&gt;БГ = минимальное значение  z&lt;br&gt;&lt;/div&gt;" style="rounded=0;whiteSpace=wrap;html=1;" parent="1" vertex="1">
          <mxGeometry x="330" y="-1040" width="200" height="60" as="geometry" />
        </mxCell>
        <mxCell id="9HgOVvUjEggW6HavxXkO-19" style="edgeStyle=orthogonalEdgeStyle;rounded=0;orthogonalLoop=1;jettySize=auto;html=1;" parent="1" edge="1">
          <mxGeometry relative="1" as="geometry">
            <mxPoint x="430" y="-840" as="targetPoint" />
            <mxPoint x="430" y="-920" as="sourcePoint" />
          </mxGeometry>
        </mxCell>
        <mxCell id="9HgOVvUjEggW6HavxXkO-16" value="для каждого многоугольника сцены" style="shape=loopLimit;whiteSpace=wrap;html=1;" parent="1" vertex="1">
          <mxGeometry x="330" y="-950" width="200" height="80" as="geometry" />
        </mxCell>
        <mxCell id="9HgOVvUjEggW6HavxXkO-23" style="edgeStyle=orthogonalEdgeStyle;rounded=0;orthogonalLoop=1;jettySize=auto;html=1;" parent="1" edge="1">
          <mxGeometry relative="1" as="geometry">
            <mxPoint x="430" y="-720" as="targetPoint" />
            <mxPoint x="430" y="-810" as="sourcePoint" />
          </mxGeometry>
        </mxCell>
        <mxCell id="9HgOVvUjEggW6HavxXkO-20" value="для каждого пикселя (𝑥, 𝑦) в многоугольнике " style="shape=loopLimit;whiteSpace=wrap;html=1;" parent="1" vertex="1">
          <mxGeometry x="330" y="-840" width="200" height="80" as="geometry" />
        </mxCell>
        <mxCell id="9HgOVvUjEggW6HavxXkO-26" style="edgeStyle=orthogonalEdgeStyle;rounded=0;orthogonalLoop=1;jettySize=auto;html=1;entryX=0.5;entryY=0;entryDx=0;entryDy=0;" parent="1" target="9HgOVvUjEggW6HavxXkO-25" edge="1">
          <mxGeometry relative="1" as="geometry">
            <mxPoint x="430" y="-740" as="sourcePoint" />
          </mxGeometry>
        </mxCell>
        <mxCell id="9HgOVvUjEggW6HavxXkO-24" value="вычислить глубину пикселя 𝑧(𝑥, 𝑦)" style="rounded=0;whiteSpace=wrap;html=1;" parent="1" vertex="1">
          <mxGeometry x="330" y="-720" width="200" height="60" as="geometry" />
        </mxCell>
        <mxCell id="9HgOVvUjEggW6HavxXkO-28" style="edgeStyle=orthogonalEdgeStyle;rounded=0;orthogonalLoop=1;jettySize=auto;html=1;exitX=1;exitY=0.5;exitDx=0;exitDy=0;" parent="1" source="9HgOVvUjEggW6HavxXkO-25" edge="1">
          <mxGeometry relative="1" as="geometry">
            <mxPoint x="630" y="-585" as="targetPoint" />
            <mxPoint x="530" y="-619.9999999999999" as="sourcePoint" />
            <Array as="points">
              <mxPoint x="630" y="-600" />
            </Array>
          </mxGeometry>
        </mxCell>
        <mxCell id="9HgOVvUjEggW6HavxXkO-29" value="Да" style="edgeLabel;html=1;align=center;verticalAlign=middle;resizable=0;points=[];" parent="9HgOVvUjEggW6HavxXkO-28" vertex="1" connectable="0">
          <mxGeometry relative="1" as="geometry">
            <mxPoint x="-27" y="-14" as="offset" />
          </mxGeometry>
        </mxCell>
        <mxCell id="9HgOVvUjEggW6HavxXkO-55" style="edgeStyle=orthogonalEdgeStyle;rounded=0;orthogonalLoop=1;jettySize=auto;html=1;entryX=0.5;entryY=0;entryDx=0;entryDy=0;" parent="1" source="9HgOVvUjEggW6HavxXkO-25" target="9HgOVvUjEggW6HavxXkO-36" edge="1">
          <mxGeometry relative="1" as="geometry">
            <Array as="points">
              <mxPoint x="240" y="-600" />
              <mxPoint x="240" y="-420" />
              <mxPoint x="430" y="-420" />
            </Array>
          </mxGeometry>
        </mxCell>
        <mxCell id="9HgOVvUjEggW6HavxXkO-25" value="&lt;i&gt;𝑧(𝑥, 𝑦) &amp;gt; БГ&lt;/i&gt;&lt;i&gt;(𝑥, 𝑦)&lt;/i&gt;?" style="rhombus;whiteSpace=wrap;html=1;" parent="1" vertex="1">
          <mxGeometry x="330" y="-640" width="200" height="80" as="geometry" />
        </mxCell>
        <mxCell id="9HgOVvUjEggW6HavxXkO-50" style="edgeStyle=orthogonalEdgeStyle;rounded=0;orthogonalLoop=1;jettySize=auto;html=1;exitX=0.5;exitY=1;exitDx=0;exitDy=0;" parent="1" edge="1">
          <mxGeometry relative="1" as="geometry">
            <mxPoint x="630" y="-505" as="targetPoint" />
            <mxPoint x="630" y="-570" as="sourcePoint" />
          </mxGeometry>
        </mxCell>
        <mxCell id="9HgOVvUjEggW6HavxXkO-30" value="&lt;i&gt;БГ&lt;/i&gt;&lt;i&gt;(𝑥, 𝑦) =&amp;nbsp; &lt;/i&gt;&lt;i&gt;𝑧(𝑥, 𝑦) &lt;/i&gt;" style="rounded=0;whiteSpace=wrap;html=1;" parent="1" vertex="1">
          <mxGeometry x="530" y="-585" width="200" height="60" as="geometry" />
        </mxCell>
        <mxCell id="9HgOVvUjEggW6HavxXkO-54" style="edgeStyle=orthogonalEdgeStyle;rounded=0;orthogonalLoop=1;jettySize=auto;html=1;entryX=0.5;entryY=0;entryDx=0;entryDy=0;" parent="1" source="9HgOVvUjEggW6HavxXkO-32" target="9HgOVvUjEggW6HavxXkO-36" edge="1">
          <mxGeometry relative="1" as="geometry">
            <Array as="points">
              <mxPoint x="630" y="-420" />
              <mxPoint x="430" y="-420" />
            </Array>
          </mxGeometry>
        </mxCell>
        <mxCell id="9HgOVvUjEggW6HavxXkO-32" value="записать&lt;br&gt;атрибут этого многоугольника " style="rounded=0;whiteSpace=wrap;html=1;" parent="1" vertex="1">
          <mxGeometry x="530" y="-504" width="200" height="60" as="geometry" />
        </mxCell>
        <mxCell id="9HgOVvUjEggW6HavxXkO-40" style="edgeStyle=orthogonalEdgeStyle;rounded=0;orthogonalLoop=1;jettySize=auto;html=1;entryX=0.5;entryY=1;entryDx=0;entryDy=0;exitX=0.5;exitY=1;exitDx=0;exitDy=0;" parent="1" target="9HgOVvUjEggW6HavxXkO-39" edge="1">
          <mxGeometry relative="1" as="geometry">
            <mxPoint x="430" y="-380" as="sourcePoint" />
          </mxGeometry>
        </mxCell>
        <mxCell id="9HgOVvUjEggW6HavxXkO-36" value="&lt;div&gt;для каждого пикселя (𝑥, 𝑦) в многоугольнике &lt;/div&gt;&lt;div&gt;&lt;br&gt;&lt;/div&gt;" style="shape=loopLimit;whiteSpace=wrap;html=1;flipV=1;strokeWidth=1;" parent="1" vertex="1">
          <mxGeometry x="330" y="-400" width="200" height="80" as="geometry" />
        </mxCell>
        <mxCell id="9HgOVvUjEggW6HavxXkO-42" style="edgeStyle=orthogonalEdgeStyle;rounded=0;orthogonalLoop=1;jettySize=auto;html=1;entryX=0.5;entryY=0;entryDx=0;entryDy=0;" parent="1" target="9HgOVvUjEggW6HavxXkO-41" edge="1">
          <mxGeometry relative="1" as="geometry">
            <mxPoint x="430" y="-290" as="sourcePoint" />
          </mxGeometry>
        </mxCell>
        <mxCell id="9HgOVvUjEggW6HavxXkO-39" value="для каждого многоугольника сцены" style="shape=loopLimit;whiteSpace=wrap;html=1;direction=west;" parent="1" vertex="1">
          <mxGeometry x="330" y="-290" width="200" height="80" as="geometry" />
        </mxCell>
        <mxCell id="9HgOVvUjEggW6HavxXkO-46" style="edgeStyle=orthogonalEdgeStyle;rounded=0;orthogonalLoop=1;jettySize=auto;html=1;entryX=0.5;entryY=0;entryDx=0;entryDy=0;entryPerimeter=0;" parent="1" target="9HgOVvUjEggW6HavxXkO-45" edge="1">
          <mxGeometry relative="1" as="geometry">
            <mxPoint x="430" y="-200" as="sourcePoint" />
          </mxGeometry>
        </mxCell>
        <mxCell id="9HgOVvUjEggW6HavxXkO-41" value="финальное изображение " style="shape=parallelogram;html=1;strokeWidth=1;perimeter=parallelogramPerimeter;whiteSpace=wrap;rounded=1;arcSize=12;size=0.23;" parent="1" vertex="1">
          <mxGeometry x="330" y="-180" width="200" height="60" as="geometry" />
        </mxCell>
        <mxCell id="9HgOVvUjEggW6HavxXkO-43" value="Начало" style="strokeWidth=1;html=1;shape=mxgraph.flowchart.terminator;whiteSpace=wrap;" parent="1" vertex="1">
          <mxGeometry x="330" y="-1150" width="200" height="80" as="geometry" />
        </mxCell>
        <mxCell id="9HgOVvUjEggW6HavxXkO-45" value="&lt;div&gt;конец&lt;/div&gt;" style="strokeWidth=1;html=1;shape=mxgraph.flowchart.terminator;whiteSpace=wrap;" parent="1" vertex="1">
          <mxGeometry x="330" y="-90" width="200" height="80" as="geometry" />
        </mxCell>
        <mxCell id="9HgOVvUjEggW6HavxXkO-59" style="edgeStyle=orthogonalEdgeStyle;rounded=0;orthogonalLoop=1;jettySize=auto;html=1;exitX=0.5;exitY=1;exitDx=0;exitDy=0;" parent="1" source="9HgOVvUjEggW6HavxXkO-4" target="9HgOVvUjEggW6HavxXkO-4" edge="1">
          <mxGeometry relative="1" as="geometry" />
        </mxCell>
      </root>
    </mxGraphModel>
  </diagram>
</mxfile>
